<mxfile host="65bd71144e">
    <diagram id="hpiwRGb-agkFqXvQGM38" name="第 1 页">
        <mxGraphModel dx="826" dy="330" grid="1" gridSize="10" guides="1" tooltips="1" connect="1" arrows="1" fold="1" page="1" pageScale="1" pageWidth="827" pageHeight="1169" math="0" shadow="0">
            <root>
                <mxCell id="0"/>
                <mxCell id="1" parent="0"/>
                <mxCell id="3" value="" style="rounded=0;whiteSpace=wrap;html=1;" parent="1" vertex="1">
                    <mxGeometry x="50" y="575.5" width="190" height="429" as="geometry"/>
                </mxCell>
                <mxCell id="4" value="GEC(global exection context)" style="text;html=1;strokeColor=none;fillColor=none;align=center;verticalAlign=middle;whiteSpace=wrap;rounded=0;" parent="1" vertex="1">
                    <mxGeometry x="14" y="490" width="250" height="30" as="geometry"/>
                </mxCell>
                <mxCell id="5" value="" style="rounded=0;whiteSpace=wrap;html=1;" parent="1" vertex="1">
                    <mxGeometry x="64" y="894.5" width="150" height="80" as="geometry"/>
                </mxCell>
                <mxCell id="8" value="VO(variable Object):GO" style="rounded=0;whiteSpace=wrap;html=1;" parent="1" vertex="1">
                    <mxGeometry x="74" y="894.5" width="130" height="40" as="geometry"/>
                </mxCell>
                <mxCell id="9" value="开始执行代码&lt;br&gt;foo()" style="rounded=0;whiteSpace=wrap;html=1;" parent="1" vertex="1">
                    <mxGeometry x="74" y="934.5" width="130" height="40" as="geometry"/>
                </mxCell>
                <mxCell id="10" value="ECStack" style="text;html=1;strokeColor=none;fillColor=none;align=center;verticalAlign=middle;whiteSpace=wrap;rounded=0;" parent="1" vertex="1">
                    <mxGeometry x="30" y="545.5" width="125" height="20" as="geometry"/>
                </mxCell>
                <mxCell id="11" value="&amp;nbsp; &amp;nbsp;{&lt;br&gt;&amp;nbsp; &amp;nbsp; &amp;nbsp;name:&quot;why&quot;,&lt;br&gt;&amp;nbsp; &amp;nbsp; &amp;nbsp;foo:0xa00&lt;br&gt;&amp;nbsp; &amp;nbsp;}" style="rounded=1;whiteSpace=wrap;html=1;align=left;" parent="1" vertex="1">
                    <mxGeometry x="686" y="615" width="150" height="80" as="geometry"/>
                </mxCell>
                <mxCell id="12" value="Global Object" style="text;html=1;strokeColor=none;fillColor=none;align=center;verticalAlign=middle;whiteSpace=wrap;rounded=0;" parent="1" vertex="1">
                    <mxGeometry x="671" y="585" width="140" height="20" as="geometry"/>
                </mxCell>
                <mxCell id="13" value="[[scope]]:parent scope&lt;br&gt;函数执行体(函数体)" style="rounded=1;whiteSpace=wrap;html=1;" parent="1" vertex="1">
                    <mxGeometry x="686" y="785" width="140" height="60" as="geometry"/>
                </mxCell>
                <mxCell id="14" value="存储函数空间（foo）0xa00" style="text;html=1;strokeColor=none;fillColor=none;align=center;verticalAlign=middle;whiteSpace=wrap;rounded=0;" parent="1" vertex="1">
                    <mxGeometry x="672" y="757" width="160" height="10" as="geometry"/>
                </mxCell>
                <mxCell id="16" value="" style="endArrow=classic;html=1;" parent="1" target="13" edge="1">
                    <mxGeometry width="50" height="50" relative="1" as="geometry">
                        <mxPoint x="751" y="675" as="sourcePoint"/>
                        <mxPoint x="781" y="765" as="targetPoint"/>
                    </mxGeometry>
                </mxCell>
                <mxCell id="34" value="引用" style="edgeLabel;html=1;align=center;verticalAlign=middle;resizable=0;points=[];" parent="16" vertex="1" connectable="0">
                    <mxGeometry x="-0.1414" relative="1" as="geometry">
                        <mxPoint as="offset"/>
                    </mxGeometry>
                </mxCell>
                <mxCell id="19" value="函数执行上下文(FEC)(bar)&lt;br&gt;Functional Execution context" style="text;html=1;strokeColor=none;fillColor=none;align=center;verticalAlign=middle;whiteSpace=wrap;rounded=0;" parent="1" vertex="1">
                    <mxGeometry x="37" y="594.5" width="210" height="30" as="geometry"/>
                </mxCell>
                <mxCell id="20" value="" style="rounded=0;whiteSpace=wrap;html=1;" parent="1" vertex="1">
                    <mxGeometry x="64" y="770.5" width="150" height="101" as="geometry"/>
                </mxCell>
                <mxCell id="21" value="VO(variable Object):AO&lt;br&gt;scope chain:AO + GO" style="rounded=0;whiteSpace=wrap;html=1;" parent="1" vertex="1">
                    <mxGeometry x="74" y="770" width="130" height="40" as="geometry"/>
                </mxCell>
                <mxCell id="22" value="&amp;nbsp; {&lt;br&gt;&amp;nbsp; &amp;nbsp; num:123,&lt;br&gt;&amp;nbsp; &amp;nbsp; m:10,&lt;br&gt;&amp;nbsp; &amp;nbsp; n:20,&lt;br&gt;&amp;nbsp; &amp;nbsp; bar:0xb00&lt;br&gt;&amp;nbsp; }&amp;nbsp;" style="rounded=1;whiteSpace=wrap;html=1;align=left;" parent="1" vertex="1">
                    <mxGeometry x="490" y="609.5" width="120" height="91" as="geometry"/>
                </mxCell>
                <mxCell id="23" value="AO(Activation Object)(foo)" style="text;html=1;strokeColor=none;fillColor=none;align=center;verticalAlign=middle;whiteSpace=wrap;rounded=0;" parent="1" vertex="1">
                    <mxGeometry x="470" y="591" width="180" height="20" as="geometry"/>
                </mxCell>
                <mxCell id="24" value="开始执行函数代码&lt;br&gt;console.log(m)&lt;br&gt;bar()" style="rounded=0;whiteSpace=wrap;html=1;" parent="1" vertex="1">
                    <mxGeometry x="74" y="814.5" width="130" height="50" as="geometry"/>
                </mxCell>
                <mxCell id="48" value="当查找一个变量时 真实的查找路径是沿着作用链来查找的" style="text;html=1;strokeColor=none;fillColor=none;align=center;verticalAlign=middle;whiteSpace=wrap;rounded=0;" parent="1" vertex="1">
                    <mxGeometry x="330" y="525.5" width="320" height="20" as="geometry"/>
                </mxCell>
                <mxCell id="49" value="[[scope]]:parent scope&lt;br&gt;函数执行体(函数体)" style="rounded=1;whiteSpace=wrap;html=1;" vertex="1" parent="1">
                    <mxGeometry x="500" y="785" width="140" height="60" as="geometry"/>
                </mxCell>
                <mxCell id="50" value="存储函数空间（bar）0xb00" style="text;html=1;strokeColor=none;fillColor=none;align=center;verticalAlign=middle;whiteSpace=wrap;rounded=0;" vertex="1" parent="1">
                    <mxGeometry x="490" y="750" width="160" height="35" as="geometry"/>
                </mxCell>
                <mxCell id="54" value="压入执行栈" style="endArrow=none;dashed=1;html=1;dashPattern=1 3;strokeWidth=2;entryX=1;entryY=0.5;entryDx=0;entryDy=0;" edge="1" parent="1" target="20">
                    <mxGeometry width="50" height="50" relative="1" as="geometry">
                        <mxPoint x="154" y="964.5" as="sourcePoint"/>
                        <mxPoint x="264" y="814.5" as="targetPoint"/>
                        <Array as="points">
                            <mxPoint x="224" y="944.5"/>
                            <mxPoint x="254" y="914.5"/>
                            <mxPoint x="244" y="854.5"/>
                        </Array>
                    </mxGeometry>
                </mxCell>
                <mxCell id="55" value="" style="rounded=0;whiteSpace=wrap;html=1;" vertex="1" parent="1">
                    <mxGeometry x="70" y="624.5" width="150" height="101" as="geometry"/>
                </mxCell>
                <mxCell id="56" value="VO(variable Object):AO&lt;br&gt;scope chain:AO + parentScope" style="rounded=0;whiteSpace=wrap;html=1;" vertex="1" parent="1">
                    <mxGeometry x="80" y="624.5" width="130" height="40" as="geometry"/>
                </mxCell>
                <mxCell id="57" value="开始执行函数代码&lt;br&gt;console.log(name)" style="rounded=0;whiteSpace=wrap;html=1;" vertex="1" parent="1">
                    <mxGeometry x="80" y="664.5" width="130" height="50" as="geometry"/>
                </mxCell>
                <mxCell id="58" value="函数执行上下文(FEC)(foo)&lt;br&gt;Functional Execution context" style="text;html=1;strokeColor=none;fillColor=none;align=center;verticalAlign=middle;whiteSpace=wrap;rounded=0;" vertex="1" parent="1">
                    <mxGeometry x="30" y="737.5" width="210" height="30" as="geometry"/>
                </mxCell>
                <mxCell id="59" value="压入执行栈" style="endArrow=none;dashed=1;html=1;dashPattern=1 3;strokeWidth=2;entryX=1;entryY=0.5;entryDx=0;entryDy=0;" edge="1" parent="1">
                    <mxGeometry width="50" height="50" relative="1" as="geometry">
                        <mxPoint x="164" y="848" as="sourcePoint"/>
                        <mxPoint x="224" y="704.5" as="targetPoint"/>
                        <Array as="points">
                            <mxPoint x="234" y="828"/>
                            <mxPoint x="264" y="798"/>
                            <mxPoint x="254" y="738"/>
                        </Array>
                    </mxGeometry>
                </mxCell>
                <mxCell id="60" value="&amp;nbsp; {&lt;br&gt;&amp;nbsp; }" style="rounded=1;whiteSpace=wrap;html=1;align=left;" vertex="1" parent="1">
                    <mxGeometry x="340" y="635" width="120" height="46" as="geometry"/>
                </mxCell>
                <mxCell id="61" value="AO(Activation Object)(bar)" style="text;html=1;strokeColor=none;fillColor=none;align=center;verticalAlign=middle;whiteSpace=wrap;rounded=0;" vertex="1" parent="1">
                    <mxGeometry x="310" y="615" width="180" height="20" as="geometry"/>
                </mxCell>
                <mxCell id="62" value="" style="endArrow=classic;html=1;entryX=0.413;entryY=1.057;entryDx=0;entryDy=0;entryPerimeter=0;" edge="1" parent="1" target="50">
                    <mxGeometry width="50" height="50" relative="1" as="geometry">
                        <mxPoint x="550" y="685" as="sourcePoint"/>
                        <mxPoint x="550" y="767.5" as="targetPoint"/>
                    </mxGeometry>
                </mxCell>
                <mxCell id="63" value="引用" style="edgeLabel;html=1;align=center;verticalAlign=middle;resizable=0;points=[];" vertex="1" connectable="0" parent="62">
                    <mxGeometry x="-0.1879" y="1" relative="1" as="geometry">
                        <mxPoint y="1" as="offset"/>
                    </mxGeometry>
                </mxCell>
                <mxCell id="64" value="" style="endArrow=none;dashed=1;html=1;dashPattern=1 3;strokeWidth=2;entryX=0;entryY=0.5;entryDx=0;entryDy=0;" edge="1" parent="1" target="60">
                    <mxGeometry width="50" height="50" relative="1" as="geometry">
                        <mxPoint x="197" y="706" as="sourcePoint"/>
                        <mxPoint x="247" y="656" as="targetPoint"/>
                    </mxGeometry>
                </mxCell>
                <mxCell id="65" value="去自己的AO中查找" style="edgeLabel;html=1;align=center;verticalAlign=middle;resizable=0;points=[];" vertex="1" connectable="0" parent="64">
                    <mxGeometry x="0.2707" y="-2" relative="1" as="geometry">
                        <mxPoint as="offset"/>
                    </mxGeometry>
                </mxCell>
                <mxCell id="66" value="上层作用域的AO中也没有 去G0中查找" style="endArrow=none;dashed=1;html=1;entryX=0.467;entryY=-0.15;entryDx=0;entryDy=0;entryPerimeter=0;" edge="1" parent="1" target="23">
                    <mxGeometry x="0.5494" y="7" width="50" height="50" relative="1" as="geometry">
                        <mxPoint x="410" y="635" as="sourcePoint"/>
                        <mxPoint x="540" y="585" as="targetPoint"/>
                        <Array as="points">
                            <mxPoint x="470" y="585"/>
                            <mxPoint x="520" y="580"/>
                        </Array>
                        <mxPoint as="offset"/>
                    </mxGeometry>
                </mxCell>
                <mxCell id="67" value="" style="endArrow=none;dashed=1;html=1;entryX=-0.007;entryY=0.363;entryDx=0;entryDy=0;entryPerimeter=0;" edge="1" parent="1" target="11">
                    <mxGeometry width="50" height="50" relative="1" as="geometry">
                        <mxPoint x="560" y="615.5" as="sourcePoint"/>
                        <mxPoint x="610" y="565.5" as="targetPoint"/>
                        <Array as="points">
                            <mxPoint x="670" y="570"/>
                        </Array>
                    </mxGeometry>
                </mxCell>
                <mxCell id="69" value="GO中找name&lt;br&gt;输出&quot;why&quot;" style="edgeLabel;html=1;align=center;verticalAlign=middle;resizable=0;points=[];" vertex="1" connectable="0" parent="67">
                    <mxGeometry x="-0.0967" y="3" relative="1" as="geometry">
                        <mxPoint x="31" y="-4" as="offset"/>
                    </mxGeometry>
                </mxCell>
            </root>
        </mxGraphModel>
    </diagram>
</mxfile>